<?xml version="1.0"?>
<svg xmlns="http://www.w3.org/2000/svg" height="512px" viewBox="0 -48 464 464" width="512px"><path d="m176 336h-16v-88h-24v120h24v-16h16v16h24v-120h-24zm0 0" fill="#00f0c8"/><path d="m16 248h24v120h-24zm0 0" fill="#00f0c8"/><path d="m256 304h-16v-56h-24v120h24v-48h16v48h24v-120h-24zm0 0" fill="#00f0c8"/><path d="m96 264h-16v-16h-24v120h24v-88h16v88h24v-120h-24zm0 0" fill="#00f0c8"/><path d="m296 248h24v120h-24zm0 0" fill="#00f0c8"/><path d="m88 48h284.800781c10.054688 0 19.121094 6.351562 22.542969 15.800781l20.289062 55.792969c3.566407 9.820312 12.992188 16.414062 23.4375 16.414062 13.753907 0 24.929688-11.175781 24.929688-24.929687v-1.375c0-2.863281-.496094-5.6875-1.457031-8.382813l-34.285157-96.015624c-1.136718-3.167969-4.167968-5.304688-7.53125-5.304688h-332.726562c-48.519531 0-88 39.480469-88 88v136c0 4.414062 3.585938 8 8 8h456v-40h-359.769531c-7.734375 0-15.039063-3.761719-19.527344-10.054688l-32.230469-45.121093c-2.929687-4.089844-4.472656-8.902344-4.472656-13.945313v-34.871094c0-22.0625 17.945312-40.007812 40-40.007812zm0 0" fill="#00f0c8"/><path d="m336 248h24v120h-24zm0 0" fill="#00f0c8"/><path d="m416 264h-16v-16h-24v120h24v-88h16v88h32v-120h-32zm0 0" fill="#00f0c8"/></svg>
