<?xml version="1.0"?>
<svg xmlns="http://www.w3.org/2000/svg" height="512px" viewBox="-48 0 496 496" width="512px"><path d="m256 248v-56h-112v56c0 30.878906 25.121094 56 56 56s56-25.121094 56-56zm-56 40c-22.054688 0-40-17.945312-40-40v-8h48v-16h-48v-16h80v16h-16v16h16v8c0 22.054688-17.945312 40-40 40zm0 0" fill="#D80027"/><path d="m104 392c0 13.230469 10.769531 24 24 24h32c13.230469 0 24-10.769531 24-24v-56h-80zm56 8h-32c-4.40625 0-8-3.59375-8-8v-8h48v8c0 4.40625-3.59375 8-8 8zm8-48v16h-48v-16zm0 0" fill="#D80027"/><path d="m216 392c0 13.230469 10.769531 24 24 24h32c13.230469 0 24-10.769531 24-24v-56h-80zm56 8h-32c-4.40625 0-8-3.59375-8-8v-8h48v8c0 4.40625-3.59375 8-8 8zm8-48v16h-48v-16zm0 0" fill="#D80027"/><path d="m381.984375 394.671875-.65625-.65625c-8.59375-8.601563-13.328125-20.023437-13.328125-32.183594v-3.015625c0-8.25 2.238281-16.335937 6.488281-23.410156l11.015625-18.367188c4.25-7.078124 6.496094-15.191406 6.496094-23.445312 0-25.136719-20.457031-45.59375-45.59375-45.59375h-22.878906c-28.023438-29.167969-43.527344-67.3125-43.527344-107.878906v-84.121094c0-30.878906-25.121094-56-56-56h-48c-30.878906 0-56 25.121094-56 56v84.121094c0 40.574218-15.503906 78.710937-43.527344 107.878906h-22.878906c-25.136719 0-45.59375 20.457031-45.59375 45.59375 0 8.261719 2.246094 16.367188 6.496094 23.453125l11.015625 18.367187c4.25 7.066407 6.488281 15.160157 6.488281 23.410157v3.015625c0 12.160156-4.734375 23.585937-13.328125 32.175781l-.65625.65625c-11.617187 11.617187-18.015625 27.0625-18.015625 43.496094v57.832031h16v-57.832031c0-12.160157 4.734375-23.582031 13.328125-32.175781l.65625-.65625c11.617187-11.625 18.015625-27.070313 18.015625-43.503907v-3.015625c0-11.144531-3.03125-22.089844-8.769531-31.648437l-11.015625-18.367188c-2.757813-4.585937-4.214844-9.847656-4.214844-15.207031 0-16.320312 13.273438-29.59375 29.59375-29.59375h18.40625v232h256v-232h18.40625c16.320312 0 29.59375 13.273438 29.59375 29.59375 0 5.359375-1.457031 10.621094-4.214844 15.214844l-11.015625 18.367187c-5.738281 9.550781-8.769531 20.496094-8.769531 31.648438v3.015625c0 16.433594 6.398438 31.871094 18.015625 43.496094l.65625.65625c8.59375 8.59375 13.328125 20.015624 13.328125 32.175781v57.832031h16v-57.832031c0-16.433594-6.398438-31.878907-18.015625-43.496094zm-117.984375-338.671875v56h-16v-64c0-11.070312-3.800781-21.238281-10.121094-29.375 15.210938 5.671875 26.121094 20.222656 26.121094 37.375zm-96-8h64v64h-64zm59.550781-16h-55.09375c5.542969-9.519531 15.75-16 27.542969-16s22 6.480469 27.550781 16zm-91.550781 24c0-17.152344 10.910156-31.703125 26.121094-37.375-6.320313 8.136719-10.121094 18.304688-10.121094 29.375v64h-16zm176 424h-224v-220.726562c30.984375-32.175782 48-74.363282 48-119.152344v-12.121094h128v12.121094c0 44.789062 17.015625 86.976562 48 119.152344zm0 0" fill="#D80027"/></svg>
